<svg width="46" height="46" viewBox="0 0 46 46" fill="none" xmlns="http://www.w3.org/2000/svg">
<g clip-path="url(#clip0_2475_9118)">
<rect width="46" height="46" fill="#333333"/>
<path d="M23 46C35.7025 46 46 35.7025 46 23C46 10.2975 35.7025 0 23 0C10.2975 0 0 10.2975 0 23C0 35.7025 10.2975 46 23 46Z" fill="#333333"/>
<path d="M33.2808 18.6416C33.2808 14.7923 30.1603 11.6719 26.311 11.6719V18.6416H33.2808Z" fill="url(#paint0_linear_2475_9118)"/>
<path d="M24.9159 23.5233C28.7653 23.5233 31.8857 20.403 31.8857 16.5537C31.8857 12.7044 28.7653 9.58398 24.9159 9.58398H17.9463V16.5537V36.4173C21.7956 36.4173 24.9159 33.2968 24.9159 29.4476V23.5233Z" fill="url(#paint1_linear_2475_9118)"/>
<path fill-rule="evenodd" clip-rule="evenodd" d="M17.25 36.4173V9.58398H17.947V36.4173H17.25Z" fill="#18A0FB"/>
<path d="M26.3114 13.7653C26.5038 13.7653 26.6599 13.6093 26.6599 13.4168C26.6599 13.2244 26.5038 13.0684 26.3114 13.0684C26.1189 13.0684 25.9629 13.2244 25.9629 13.4168C25.9629 13.6093 26.1189 13.7653 26.3114 13.7653Z" fill="black"/>
</g>
<defs>
<linearGradient id="paint0_linear_2475_9118" x1="38.5081" y1="16.0279" x2="26.311" y2="38.5052" gradientUnits="userSpaceOnUse">
<stop offset="0.046875" stop-color="#FFAC4B"/>
<stop offset="0.229167" stop-color="#F24E1E"/>
</linearGradient>
<linearGradient id="paint1_linear_2475_9118" x1="24.9159" y1="9.58398" x2="24.9159" y2="36.4173" gradientUnits="userSpaceOnUse">
<stop offset="0.229167" stop-color="#F24E1E"/>
<stop offset="1" stop-color="#A259FF"/>
</linearGradient>
<clipPath id="clip0_2475_9118">
<rect width="46" height="46" fill="white"/>
</clipPath>
</defs>
</svg>
